<svg width="28" height="28" viewBox="0 0 28 28" fill="none" xmlns="http://www.w3.org/2000/svg">
<rect x="0.5" y="0.5" width="27" height="27" rx="13.5" stroke="#FC7D7D"/>
<path d="M19.2501 8.75831C18.9251 8.43331 18.4001 8.43331 18.0751 8.75831L14.0001 12.825L9.9251 8.74998C9.6001 8.42498 9.0751 8.42498 8.7501 8.74998C8.4251 9.07498 8.4251 9.59998 8.7501 9.92498L12.8251 14L8.7501 18.075C8.4251 18.4 8.4251 18.925 8.7501 19.25C9.0751 19.575 9.6001 19.575 9.9251 19.25L14.0001 15.175L18.0751 19.25C18.4001 19.575 18.9251 19.575 19.2501 19.25C19.5751 18.925 19.5751 18.4 19.2501 18.075L15.1751 14L19.2501 9.92498C19.5668 9.60831 19.5668 9.07498 19.2501 8.75831Z" fill="#DCDCDC"/>
</svg>
