<svg width="153" height="30" viewBox="0 0 153 30" fill="none" xmlns="http://www.w3.org/2000/svg">
<path fill-rule="evenodd" clip-rule="evenodd" d="M13.5 2.70404C12.1762 1.93827 10.6393 1.5 9 1.5C4.02944 1.5 0 5.52944 0 10.5C0 12.1393 0.438275 13.6762 1.20404 15C0.438275 16.3238 0 17.8607 0 19.5C0 24.4706 4.02944 28.5 9 28.5C10.6393 28.5 12.1762 28.0617 13.5 27.296C14.8238 28.0617 16.3607 28.5 18 28.5C22.9706 28.5 27 24.4706 27 19.5C27 17.8607 26.5617 16.3238 25.796 15C26.5617 13.6762 27 12.1393 27 10.5C27 5.52944 22.9706 1.5 18 1.5C16.3607 1.5 14.8238 1.93827 13.5 2.70404Z" fill="#7DFCA0"/>
<path d="M36.4395 23V7.44531H42.2832C45.8496 7.44531 47.7617 9.61523 47.7617 12.6016C47.7617 15.5879 45.8281 17.7363 42.2402 17.7363H39.2324V23H36.4395ZM39.2324 15.4375H41.8535C43.959 15.4375 44.9043 14.2559 44.9043 12.6016C44.9043 10.9258 43.959 9.78711 41.8535 9.78711H39.2324V15.4375ZM49.5908 23V7.44531H52.3837V20.6367H59.2587V23H49.5908ZM63.6444 23H60.6581L66.1366 7.44531H69.5741L75.0741 23H72.0878L70.7987 19.1543H64.9335L63.6444 23ZM65.6855 16.8984H70.0468L67.9198 10.625H67.7909L65.6855 16.8984ZM86.2489 12.6875C85.9266 10.8184 84.4227 9.74414 82.5321 9.74414C79.9755 9.74414 78.1923 11.6992 78.1923 15.2227C78.1923 18.7891 79.9969 20.7012 82.5321 20.7012C84.3798 20.7012 85.8837 19.6699 86.2489 17.8438H89.0634C88.6337 20.8301 86.1844 23.2148 82.4891 23.2148C78.3856 23.2148 75.3778 20.2285 75.3778 15.2227C75.3778 10.1953 78.4286 7.23047 82.4891 7.23047C85.9266 7.23047 88.5907 9.22852 89.0634 12.6875H86.2489ZM93.8358 7.44531V23H91.0428V7.44531H93.8358ZM96.3094 23V7.44531H106.429V9.78711H99.1023V14.041H105.891V16.3828H99.1023V20.6367H106.471V23H96.3094ZM121.47 7.44531V23H118.978L111.609 12.3652H111.48V23H108.687V7.44531H111.222L118.549 18.0801H118.699V7.44531H121.47ZM134.407 12.6875C134.085 10.8184 132.581 9.74414 130.69 9.74414C128.133 9.74414 126.35 11.6992 126.35 15.2227C126.35 18.7891 128.155 20.7012 130.69 20.7012C132.538 20.7012 134.042 19.6699 134.407 17.8438H137.221C136.792 20.8301 134.342 23.2148 130.647 23.2148C126.544 23.2148 123.536 20.2285 123.536 15.2227C123.536 10.1953 126.587 7.23047 130.647 7.23047C134.085 7.23047 136.749 9.22852 137.221 12.6875H134.407ZM138.127 7.44531H141.285L145.109 14.3203H145.259L149.084 7.44531H152.242L146.591 17.1777V23H143.798V17.1777L138.127 7.44531Z" fill="black"/>
</svg>
